<mxfile host="65bd71144e">
    <diagram id="5CaG9jINW5G1SVvZH-2C" name="Page-1">
        <mxGraphModel dx="719" dy="596" grid="1" gridSize="10" guides="1" tooltips="1" connect="1" arrows="1" fold="1" page="1" pageScale="1" pageWidth="850" pageHeight="1100" math="0" shadow="0">
            <root>
                <mxCell id="0"/>
                <mxCell id="1" parent="0"/>
                <mxCell id="2" value="&lt;b&gt;&lt;font style=&quot;font-size: 13px;&quot;&gt;PanCanAID&lt;/font&gt;&lt;/b&gt;" style="rounded=0;whiteSpace=wrap;html=1;verticalAlign=top;" vertex="1" parent="1">
                    <mxGeometry x="180" y="60" width="120" height="660" as="geometry"/>
                </mxCell>
                <mxCell id="3" value="Introduction to PanCanAID: Farsi / ENG" style="rounded=0;whiteSpace=wrap;html=1;" vertex="1" parent="1">
                    <mxGeometry x="200" y="120" width="80" height="50" as="geometry"/>
                </mxCell>
                <mxCell id="4" value="Introduction to PanCanAID Education" style="rounded=0;whiteSpace=wrap;html=1;" vertex="1" parent="1">
                    <mxGeometry x="200" y="190" width="80" height="50" as="geometry"/>
                </mxCell>
                <mxCell id="5" value="How to join/help PanCanAID as a center" style="rounded=0;whiteSpace=wrap;html=1;" vertex="1" parent="1">
                    <mxGeometry x="200" y="260" width="80" height="60" as="geometry"/>
                </mxCell>
                <mxCell id="8" value="How to join/help PanCanAID as a pancreatic cancer physician" style="rounded=0;whiteSpace=wrap;html=1;" vertex="1" parent="1">
                    <mxGeometry x="200" y="330" width="80" height="110" as="geometry"/>
                </mxCell>
                <mxCell id="9" value="How to join/help PanCanAID as a patient" style="rounded=0;whiteSpace=wrap;html=1;" vertex="1" parent="1">
                    <mxGeometry x="200" y="550" width="80" height="60" as="geometry"/>
                </mxCell>
                <mxCell id="10" value="How to join/help PanCanAID as a radiologist" style="rounded=0;whiteSpace=wrap;html=1;" vertex="1" parent="1">
                    <mxGeometry x="200" y="460" width="80" height="80" as="geometry"/>
                </mxCell>
                <mxCell id="11" value="How to join/help PanCanAID as a GP" style="rounded=0;whiteSpace=wrap;html=1;" vertex="1" parent="1">
                    <mxGeometry x="200" y="630" width="80" height="70" as="geometry"/>
                </mxCell>
                <mxCell id="12" value="&lt;b&gt;&lt;font style=&quot;font-size: 13px;&quot;&gt;Data Team&lt;/font&gt;&lt;/b&gt;" style="rounded=0;whiteSpace=wrap;html=1;verticalAlign=top;" vertex="1" parent="1">
                    <mxGeometry x="320" y="60" width="120" height="660" as="geometry"/>
                </mxCell>
                <mxCell id="13" value="&lt;a href=&quot;https://youtu.be/iRXhPDwG-nI&quot;&gt;Data Collection from Centers&lt;/a&gt;" style="rounded=0;whiteSpace=wrap;html=1;" vertex="1" parent="1">
                    <mxGeometry x="340" y="120" width="80" height="50" as="geometry"/>
                </mxCell>
                <mxCell id="15" value="&lt;span style=&quot;font-size: 13px; text-align: left;&quot;&gt;Follow-up of patients&lt;/span&gt;" style="rounded=0;whiteSpace=wrap;html=1;" vertex="1" parent="1">
                    <mxGeometry x="340" y="190" width="80" height="50" as="geometry"/>
                </mxCell>
            </root>
        </mxGraphModel>
    </diagram>
</mxfile>